<?xml version="1.0" encoding="utf-8"?>
<!-- Generator: Adobe Illustrator 24.0.1, SVG Export Plug-In . SVG Version: 6.00 Build 0)  -->
<svg version="1.2" baseProfile="tiny" id="Layer_1" xmlns="http://www.w3.org/2000/svg" xmlns:xlink="http://www.w3.org/1999/xlink"
	 x="0px" y="0px" viewBox="0 0 128 128" xml:space="preserve">
<path fill="#653213" d="M75.6,78.2L75.6,78.2c-0.4-0.4-1-0.4-1.4,0l-2.6,2.6c-0.5,0.5-1.4,0.2-1.4-0.6V65.8H57.9v24.7
	c0,0.6-0.7,0.9-1.1,0.5l-1.9-1.9c-0.5-0.5-1.3-0.5-1.8,0l-0.4,0.4c-0.5,0.5-0.5,1.3,0,1.8l4.3,4.3c0.6,0.6,0.9,1.4,0.9,2.2v13.3
	h12.3V85.8c0-0.9,0.3-1.7,1-2.3l4.5-4.5C75.8,78.8,75.8,78.4,75.6,78.2z"/>
<path fill="#55BB6F" d="M96.2,41.7C96.2,24,81.8,9.6,64,9.6S31.8,24,31.8,41.7c0,0.4,0,0.9,0,1.3v0C32.6,60.2,46.7,73.9,64,73.9
	s31.4-13.7,32.1-30.8v0C96.2,42.6,96.2,42.2,96.2,41.7z"/>
<g>
	<path fill="#653213" d="M64,76.6c-2.1,0-4.1-0.2-6.1-0.6v14.6c0,0.6-0.7,0.9-1.1,0.5l-1.9-1.9c-0.5-0.5-1.3-0.5-1.8,0l-0.4,0.4
		c-0.5,0.5-0.5,1.3,0,1.8l4.3,4.3c0.6,0.6,0.9,1.4,0.9,2.2v13.3h12.3V85.8c0-0.9,0.3-1.7,1-2.3l4.5-4.5c0.2-0.2,0.2-0.6,0-0.9
		c-0.4-0.4-1-0.4-1.4,0l-2.6,2.6c-0.5,0.5-1.4,0.2-1.4-0.6V76C68.1,76.4,66.1,76.6,64,76.6z"/>
	<path fill="#462110" d="M70.1,76v-2.7c-2,0.4-4,0.6-6.1,0.6s-4.1-0.2-6.1-0.6V76c2,0.4,4,0.6,6.1,0.6S68.1,76.4,70.1,76z"/>
</g>
<circle fill="#462110" cx="61.4" cy="84.9" r="1.1"/>
<circle fill="#462110" cx="67.2" cy="106.8" r="0.4"/>
<circle fill="#462110" cx="61.1" cy="102.9" r="0.9"/>
<circle fill="#6BC070" cx="83.9" cy="34.9" r="1.5"/>
<circle fill="#6BC070" cx="64.6" cy="19.1" r="2.6"/>
<circle fill="#6BC070" cx="48" cy="55.8" r="1.4"/>
<circle fill="#6BC070" cx="60.2" cy="36.4" r="2.3"/>
<circle fill="#6BC070" cx="70.5" cy="39.1" r="2.7"/>
<circle fill="#6BC070" cx="60.8" cy="46.9" r="1.7"/>
<circle fill="#6BC070" cx="71.3" cy="49.6" r="2"/>
<path fill="#6BC070" d="M74.5,111.2h-21l0,0c0-0.9,0.7-1.6,1.6-1.6h17.9C73.8,109.6,74.5,110.3,74.5,111.2L74.5,111.2z"/>
<circle fill="#38B665" cx="58.6" cy="66.7" r="2.7"/>
<circle fill="#38B665" cx="36.6" cy="40.6" r="1.2"/>
<circle fill="#38B665" cx="43.1" cy="28" r="1.8"/>
</svg>
