<?xml version="1.0" encoding="utf-8"?>
<!-- Generator: Adobe Illustrator 24.0.1, SVG Export Plug-In . SVG Version: 6.00 Build 0)  -->
<svg version="1.2" baseProfile="tiny" id="Layer_1" xmlns="http://www.w3.org/2000/svg" xmlns:xlink="http://www.w3.org/1999/xlink"
	 x="0px" y="0px" viewBox="0 0 128 128" xml:space="preserve">
<path fill="#56788B" d="M123.9,117.7H9.2c-0.2,0-0.4-0.2-0.4-0.4V113c0-0.2,0.2-0.4,0.4-0.4h114.7c0.2,0,0.4,0.2,0.4,0.4v4.3
	C124.3,117.6,124.2,117.7,123.9,117.7z"/>
<g>
	<path fill="#1B6F3D" d="M48.5,114.9H27.9V22.5c0-5.7,4.6-10.3,10.3-10.3h0c5.7,0,10.3,4.6,10.3,10.3V114.9z"/>
	<path fill="#1B6F3D" d="M70.7,114.9H56.3V19.3c0-4,3.2-7.2,7.2-7.2h0c4,0,7.2,3.2,7.2,7.2V114.9z"/>
	<path fill="#1B6F3D" d="M105.2,114.9H81.6V24c0-6.5,5.3-11.8,11.8-11.8h0c6.5,0,11.8,5.3,11.8,11.8V114.9z"/>
</g>
</svg>
