<svg id="Layer_1" data-name="Layer 1" xmlns="http://www.w3.org/2000/svg" viewBox="0 0 113.69 42.65"><title>Blaster</title><path d="M18.43,47.67V55.3a2.19,2.19,0,0,0,2.2,2.2h17.9a2.21,2.21,0,0,1,2.21,2.21V78.43H63.05v-33H20.63A2.2,2.2,0,0,0,18.43,47.67Z" transform="translate(-8.68 -40.62)" style="fill:#dae1ea"/><path d="M69.06,45.47h53.3a0,0,0,0,1,0,0v11.1a0,0,0,0,1,0,0H63a0,0,0,0,1,0,0V51.48A6,6,0,0,1,69.06,45.47Z" transform="translate(176.74 61.42) rotate(-180)" style="fill:#dae1ea"/><path d="M63,67.33h59.32a0,0,0,0,1,0,0v11.1a0,0,0,0,1,0,0H69.06a6,6,0,0,1-6-6V67.33a0,0,0,0,1,0,0Z" transform="translate(176.74 105.15) rotate(-180)" style="fill:#dae1ea"/><rect x="98.81" y="9.21" width="2.9" height="5.08" style="fill:#003343"/><rect x="94.73" y="9.21" width="2.9" height="5.08" style="fill:#003343"/><rect x="90.65" y="9.21" width="2.9" height="5.08" style="fill:#003343"/><rect x="86.57" y="9.21" width="2.9" height="5.08" style="fill:#003343"/><rect x="82.58" y="9.21" width="2.9" height="5.08" style="fill:#003343"/><rect x="98.77" y="28.62" width="2.9" height="5.08" style="fill:#003343"/><rect x="94.69" y="28.62" width="2.9" height="5.08" style="fill:#003343"/><rect x="90.61" y="28.62" width="2.9" height="5.08" style="fill:#003343"/><rect x="86.53" y="28.62" width="2.9" height="5.08" style="fill:#003343"/><rect x="82.53" y="28.62" width="2.9" height="5.08" style="fill:#003343"/><polygon points="108.88 2.68 106.71 4.85 111.69 4.85 111.69 2.68 108.88 2.68" style="fill:#003343"/><path d="M85.54,69.23V67.4L80.16,62l5.38-5.38V54.9H64.77a7.17,7.17,0,0,0-7.16,7.17h0a7.17,7.17,0,0,0,7.16,7.16Z" transform="translate(-8.68 -40.62)" style="fill:#003343"/><rect x="52.14" y="18.64" width="24.73" height="5.38" rx="2.69" style="fill:#b8cede"/><rect x="64.71" y="20.19" width="10.64" height="2.12" rx="1.06" style="fill:#dae1ea"/><circle cx="55.29" cy="21.33" r="1.55" style="fill:#dae1ea"/><rect x="36.23" y="6.78" width="11.25" height="5.87" rx="2.93" style="fill:#b8cede;stroke:#231f20;stroke-miterlimit:10"/><rect x="36.23" y="28.22" width="11.25" height="5.87" rx="2.93" style="fill:#b8cede;stroke:#231f20;stroke-miterlimit:10"/><rect x="36.23" y="16.38" width="11.25" height="8.1" style="fill:#003343"/><polygon points="42.43 0 32.12 0 25.41 4.85 60.9 4.85 42.43 0" style="fill:#b8cede"/><rect x="32.06" y="1.06" width="10.22" height="1.98" rx="0.82" style="fill:#425f70"/><circle cx="56.84" cy="4.37" r="0.32" style="fill:#425f70"/><circle cx="27.21" cy="4.37" r="0.32" style="fill:#425f70"/><path d="M38.44,64.64H29.86A3.64,3.64,0,0,1,26.23,61V59.65a3.55,3.55,0,0,1,.66-2,.06.06,0,0,0-.05-.1H20.7a.07.07,0,0,0-.07.07v8a2.26,2.26,0,0,1-2.26,2.25H14.23a5.55,5.55,0,0,0-5.55,5.56v4.37a5.55,5.55,0,0,0,5.55,5.56H38.8a1.94,1.94,0,0,0,1.94-1.94V63.91a.06.06,0,0,0-.1,0A3.55,3.55,0,0,1,38.44,64.64Zm0,16.33a.07.07,0,0,1-.07.07H17.88a1.66,1.66,0,0,1-1.09-.42,1.7,1.7,0,0,1-.59-1.26v-.08A1.66,1.66,0,0,1,16.79,78a1.64,1.64,0,0,1,.57-.33,1.65,1.65,0,0,1-.34-1v-.08A1.66,1.66,0,0,1,18.31,75s.06-.07,0-.1a1.66,1.66,0,0,1-.41-1.1h0a1.74,1.74,0,0,1,1.74-1.74h0a1.64,1.64,0,0,1-.25-.87V71.1a1.68,1.68,0,0,1,1.5-1.66v0H38.4a.07.07,0,0,1,.07.07Z" transform="translate(-8.68 -40.62)" style="fill:#425f70"/><rect x="11.99" y="7.39" width="20.07" height="3.63" rx="1.81" style="fill:#425f70"/></svg>