<?xml version="1.0" encoding="utf-8"?>
<!-- Generator: Adobe Illustrator 24.0.1, SVG Export Plug-In . SVG Version: 6.00 Build 0)  -->
<svg version="1.2" baseProfile="tiny" id="Layer_1" xmlns="http://www.w3.org/2000/svg" xmlns:xlink="http://www.w3.org/1999/xlink"
	 x="0px" y="0px" viewBox="0 0 32 32" xml:space="preserve">
<path d="M17,5.2C11.2,5.2,6.4,10,6.4,15.8c0,1.3,0.2,2.5,0.7,3.7l0.6-0.6c-0.3-1-0.5-2-0.5-3.1C7.2,10.4,11.6,6,17,6
	s9.8,4.4,9.8,9.8c0,5.4-4.4,9.8-9.8,9.8c-3.1,0-5.9-1.5-7.7-3.8l-0.6,0.6c1.9,2.4,4.9,4,8.3,4c5.9,0,10.6-4.8,10.6-10.6
	S22.9,5.2,17,5.2z"/>
<rect x="9.3" y="14.5" transform="matrix(0.7071 0.7071 -0.7071 0.7071 15.178 -1.7766)" width="0.8" height="5.9"/>
<rect x="5.2" y="15.1" transform="matrix(-0.7071 0.7071 -0.7071 -0.7071 22.2541 26.7869)" width="0.8" height="5.9"/>
</svg>
